<?xml version="1.0" encoding="UTF-8" standalone="no"?>
<!-- Created with Inkscape (http://www.inkscape.org/) -->

<svg
   width="225mm"
   height="225mm"
   viewBox="0 0 225 225"
   version="1.1"
   id="svg1"
   xml:space="preserve"
   inkscape:version="1.3.2 (091e20e, 2023-11-25, custom)"
   sodipodi:docname="dart_board.svg"
   xmlns:inkscape="http://www.inkscape.org/namespaces/inkscape"
   xmlns:sodipodi="http://sodipodi.sourceforge.net/DTD/sodipodi-0.dtd"
   xmlns:xlink="http://www.w3.org/1999/xlink"
   xmlns="http://www.w3.org/2000/svg"
   xmlns:svg="http://www.w3.org/2000/svg"><sodipodi:namedview
     id="namedview1"
     pagecolor="#808080"
     bordercolor="#000000"
     borderopacity="0"
     inkscape:showpageshadow="0"
     inkscape:pageopacity="0"
     inkscape:pagecheckerboard="true"
     inkscape:deskcolor="#d1d1d1"
     inkscape:document-units="mm"
     inkscape:zoom="0.72426346"
     inkscape:cx="453.56423"
     inkscape:cy="441.13781"
     inkscape:window-width="1920"
     inkscape:window-height="1009"
     inkscape:window-x="1912"
     inkscape:window-y="-8"
     inkscape:window-maximized="1"
     inkscape:current-layer="g3096" /><defs
     id="defs1" /><g
     inkscape:groupmode="layer"
     id="layer5"
     inkscape:label="background"
     transform="translate(1.1492871e-5)"><circle
       style="fill:#343434;fill-opacity:1;fill-rule:nonzero;stroke:#ffffff;stroke-width:1.01806;stroke-linejoin:round;stroke-dasharray:none;stroke-opacity:1"
       id="circle3161"
       cx="-119.10666"
       cy="105.48035"
       inkscape:label="background"
       transform="rotate(-93.472032)"
       r="111.98741" /><circle
       style="fill:none;fill-opacity:1;fill-rule:nonzero;stroke:none;stroke-width:0.922726;stroke-linejoin:round;stroke-dasharray:none;stroke-opacity:1"
       id="path3157"
       cx="-118.39798"
       cy="103.08205"
       inkscape:label="numbers-path"
       transform="rotate(-94.472029)"
       r="101.5" /><text
       xml:space="preserve"
       style="font-weight:bold;font-size:12.6981px;font-family:Rockwell;-inkscape-font-specification:'Rockwell Bold';shape-subtract:url(#path3157);fill:#343434;fill-opacity:1;fill-rule:nonzero;stroke:#ffffff;stroke-width:1;stroke-linejoin:round;stroke-dasharray:none;stroke-opacity:1"
       id="text3161"
       inkscape:label="numbers"
       transform="matrix(0.99919163,0,0,0.99968061,0.29220871,2.7126267)"><textPath
         xlink:href="#path3157"
         id="textPath3161"
         inkscape:label="path"
         style="font-size:12.6981px;fill:#f7f7f7;fill-opacity:1;stroke:none">20       1      18       4       13       6       10     15       2       17       3      19       7       16      8       11      14       9      12       5</textPath></text></g><g
     inkscape:label="tripple"
     inkscape:groupmode="layer"
     id="layer1"
     style="display:inline;opacity:1"
     transform="translate(1.1492871e-5)"><g
       inkscape:groupmode="layer"
       id="layer3"
       inkscape:label="color2"
       style="display:inline;fill:#658441;fill-opacity:1"><path
         id="path3075"
         style="display:inline;opacity:1;fill:#658441;fill-opacity:1;fill-rule:nonzero;stroke:none;stroke-width:4.2;stroke-linejoin:round"
         d="m 143.40172,207.60573 a 100,100 0 0 0 14.73923,-6.25233 l -45.64096,-88.85341 15.77272,98.73043 a 100,100 0 0 0 15.12901,-3.62469 z"
         inkscape:label="17" /><path
         id="path3075-0-6"
         style="display:inline;opacity:1;fill:#658441;fill-opacity:1;fill-rule:nonzero;stroke:none;stroke-width:4.2;stroke-linejoin:round"
         d="m 81.598252,17.394246 a 100,100 0 0 0 -14.739236,6.25233 L 112.49999,112.49999 96.727248,13.769546 a 100,100 0 0 0 -15.128996,3.6247 z"
         inkscape:label="5" /><path
         id="path3075-3"
         style="display:inline;opacity:1;fill:#658441;fill-opacity:1;fill-rule:nonzero;stroke:none;stroke-width:4.2;stroke-linejoin:round"
         d="m 81.765496,207.65991 a 100,100 0 0 0 15.605644,3.57783 l 15.12884,-98.73777 -45.115098,89.22505 a 100,100 0 0 0 14.380614,5.93489 z"
         inkscape:label="19" /><path
         id="path3075-0-6-1"
         style="display:inline;opacity:1;fill:#658441;fill-opacity:1;fill-rule:nonzero;stroke:none;stroke-width:4.2;stroke-linejoin:round"
         d="M 143.23446,17.340059 A 100,100 0 0 0 127.62881,13.762226 L 112.49998,112.49997 157.61507,23.274944 A 100,100 0 0 0 143.23446,17.340059 Z"
         inkscape:label="1" /><path
         id="path3075-3-3"
         style="display:inline;opacity:1;fill:#658441;fill-opacity:1;fill-rule:nonzero;stroke:none;stroke-width:4.2;stroke-linejoin:round"
         d="m 31.701667,171.42071 a 100,100 0 0 0 10.52223,12.06729 l 70.276083,-70.98803 -88.944036,45.66658 a 100,100 0 0 0 8.145723,13.25416 z"
         inkscape:label="16" /><path
         id="path3075-0-6-1-9"
         style="display:inline;opacity:1;fill:#658441;fill-opacity:1;fill-rule:nonzero;stroke:none;stroke-width:4.2;stroke-linejoin:round"
         d="M 193.29829,53.579253 A 100,100 0 0 0 182.77605,41.511958 L 112.49998,112.49997 201.44402,66.8334 a 100,100 0 0 0 -8.14573,-13.254147 z"
         inkscape:label="4" /><path
         id="path3075-3-3-4"
         style="display:inline;opacity:1;fill:#658441;fill-opacity:1;fill-rule:nonzero;stroke:none;stroke-width:4.2;stroke-linejoin:round"
         d="m 12.500027,112.67578 a 100,100 0 0 0 1.419686,15.94747 L 112.49998,112.49997 13.700595,97.16504 a 100,100 0 0 0 -1.200568,15.51074 z"
         inkscape:label="11" /><path
         id="path3075-0-6-1-9-9"
         style="display:inline;opacity:1;fill:#658441;fill-opacity:1;fill-rule:nonzero;stroke:none;stroke-width:4.2;stroke-linejoin:round"
         d="m 212.49992,112.32416 a 100,100 0 0 0 -1.41969,-15.94747 l -98.58025,16.12328 98.79938,15.33496 a 100,100 0 0 0 1.20056,-15.51077 z"
         inkscape:label="6" /><path
         id="path3075-3-3-4-0"
         style="display:inline;opacity:1;fill:#658441;fill-opacity:1;fill-rule:nonzero;stroke:none;stroke-width:4.2;stroke-linejoin:round"
         d="M 31.494975,53.863724 A 100,100 0 0 0 23.26985,67.59997 l 89.23013,44.9 L 41.583264,42.020929 A 100,100 0 0 0 31.494975,53.863724 Z"
         inkscape:label="9" /><path
         id="path3075-0-6-1-9-9-3"
         style="display:inline;opacity:1;fill:#658441;fill-opacity:1;fill-rule:nonzero;stroke:none;stroke-width:4.2;stroke-linejoin:round"
         d="m 193.50497,171.13623 a 100,100 0 0 0 8.22514,-13.73624 l -89.23013,-44.90002 70.91672,70.47906 a 100,100 0 0 0 10.08827,-11.8428 z"
         inkscape:label="15" /></g><g
       inkscape:groupmode="layer"
       id="layer2"
       inkscape:label="color1"
       style="display:inline;opacity:1;fill:#9d4c39;fill-opacity:1"><path
         id="path3075-0"
         style="display:inline;opacity:1;fill:#9d4c39;fill-opacity:1;fill-rule:nonzero;stroke:none;stroke-width:4.2;stroke-linejoin:round"
         d="m 112.49999,212.50009 a 100,100 0 0 0 15.94992,-1.39165 L 112.49999,112.5 96.991357,211.27225 a 100,100 0 0 0 15.508633,1.22784 z"
         inkscape:label="3" /><path
         id="path3075-0-6-3"
         style="display:inline;opacity:1;fill:#9d4c39;fill-opacity:1;fill-rule:nonzero;stroke:none;stroke-width:4.2;stroke-linejoin:round"
         d="M 112.49997,12.499894 A 100,100 0 0 0 96.550052,13.891538 L 112.49999,112.5 128.0086,13.727718 a 100,100 0 0 0 -15.50863,-1.227824 z"
         inkscape:label="20" /><path
         id="path3075-3-2"
         style="display:inline;opacity:1;fill:#9d4c39;fill-opacity:1;fill-rule:nonzero;stroke:none;stroke-width:4.2;stroke-linejoin:round"
         d="m 53.863708,193.50497 a 100,100 0 0 0 13.736245,8.22513 l 44.900027,-89.23013 -70.479063,70.91674 a 100,100 0 0 0 11.842791,10.08826 z"
         inkscape:label="17" /><path
         id="path3075-0-6-1-0"
         style="display:inline;opacity:1;fill:#9d4c39;fill-opacity:1;fill-rule:nonzero;stroke:none;stroke-width:4.2;stroke-linejoin:round"
         d="M 171.13624,31.494997 A 100,100 0 0 0 157.4,23.269864 L 112.49998,112.49997 182.97903,41.58326 A 100,100 0 0 0 171.13624,31.494997 Z"
         inkscape:label="18" /><path
         id="path3075-3-3-6"
         style="display:inline;opacity:1;fill:#9d4c39;fill-opacity:1;fill-rule:nonzero;stroke:none;stroke-width:4.2;stroke-linejoin:round"
         d="m 17.44871,143.56887 a 100,100 0 0 0 6.278237,14.72823 l 88.773033,-45.79713 -98.702552,15.94628 a 100,100 0 0 0 3.651282,15.12262 z"
         inkscape:label="8" /><path
         id="path3075-0-6-1-9-5"
         style="display:inline;opacity:1;fill:#9d4c39;fill-opacity:1;fill-rule:nonzero;stroke:none;stroke-width:4.2;stroke-linejoin:round"
         d="M 207.55125,81.43109 A 100,100 0 0 0 201.273,66.70286 l -88.77302,45.79711 98.70256,-15.94627 a 100,100 0 0 0 -3.65129,-15.12261 z"
         inkscape:label="13" /><path
         id="path3075-3-3-4-7"
         style="display:inline;opacity:1;fill:#9d4c39;fill-opacity:1;fill-rule:nonzero;stroke:none;stroke-width:4.2;stroke-linejoin:round"
         d="M 17.340047,81.76549 A 100,100 0 0 0 13.76221,97.37114 L 112.49998,112.49997 23.274937,67.3849 a 100,100 0 0 0 -5.93489,14.38059 z"
         inkscape:label="14" /><path
         id="path3075-0-6-1-9-9-9"
         style="display:inline;opacity:1;fill:#9d4c39;fill-opacity:1;fill-rule:nonzero;stroke:none;stroke-width:4.2;stroke-linejoin:round"
         d="m 207.65991,143.23445 a 100,100 0 0 0 3.57783,-15.60565 l -98.73776,-15.12883 89.22503,45.1151 a 100,100 0 0 0 5.9349,-14.38062 z"
         inkscape:label="10" /><path
         id="path3075-3-3-4-0-1"
         style="display:inline;opacity:1;fill:#9d4c39;fill-opacity:1;fill-rule:nonzero;stroke:none;stroke-width:4.2;stroke-linejoin:round"
         d="M 53.57924,31.701665 A 100,100 0 0 0 41.511948,42.223908 L 112.49998,112.49997 66.833398,23.55595 A 100,100 0 0 0 53.57924,31.701665 Z"
         inkscape:label="12" /><path
         id="path3075-0-6-1-9-9-3-2"
         style="display:inline;opacity:1;fill:#9d4c39;fill-opacity:1;fill-rule:nonzero;stroke:none;stroke-width:4.2;stroke-linejoin:round"
         d="m 171.42071,193.29829 a 100,100 0 0 0 12.0673,-10.52223 l -70.98803,-70.27609 45.66658,88.94404 a 100,100 0 0 0 13.25415,-8.14572 z"
         inkscape:label="2" /></g></g><g
     inkscape:label="singleOut"
     inkscape:groupmode="layer"
     id="g3096"
     style="display:inline;opacity:1"
     transform="matrix(0.77500023,0,0,0.77499924,24.666636,28.412615)"><g
       inkscape:groupmode="layer"
       id="g3085"
       inkscape:label="color2"
       style="display:inline;fill:#b9a88a;fill-opacity:1"><path
         id="path3076"
         style="display:inline;opacity:1;fill:#b9a88a;fill-opacity:1;fill-rule:nonzero;stroke:none;stroke-width:4.2;stroke-linejoin:round"
         d="m 144.23508,203.60569 a 100,100 0 0 0 14.73923,-6.25233 l -45.64096,-88.85341 15.77272,98.73043 a 100,100 0 0 0 15.12901,-3.62469 z"
         inkscape:label="17" /><path
         id="path3077"
         style="display:inline;opacity:1;fill:#b9a88a;fill-opacity:1;fill-rule:nonzero;stroke:none;stroke-width:4.2;stroke-linejoin:round"
         d="m 82.431603,13.394206 a 100,100 0 0 0 -14.739236,6.25233 L 113.33335,108.49995 97.560599,9.7695069 A 100,100 0 0 0 82.431603,13.394206 Z"
         inkscape:label="5" /><path
         id="path3078"
         style="display:inline;opacity:1;fill:#b9a88a;fill-opacity:1;fill-rule:nonzero;stroke:none;stroke-width:4.2;stroke-linejoin:round"
         d="m 82.598847,203.65987 a 100,100 0 0 0 15.605644,3.57783 l 15.128849,-98.73777 -45.115107,89.22505 a 100,100 0 0 0 14.380614,5.93489 z"
         inkscape:label="19" /><path
         id="path3079"
         style="display:inline;opacity:1;fill:#b9a88a;fill-opacity:1;fill-rule:nonzero;stroke:none;stroke-width:4.2;stroke-linejoin:round"
         d="M 144.06782,13.340019 A 100,100 0 0 0 128.46217,9.7621869 L 113.33334,108.49993 158.44843,19.274904 a 100,100 0 0 0 -14.38061,-5.934885 z"
         inkscape:label="1" /><path
         id="path3080"
         style="display:inline;opacity:1;fill:#b9a88a;fill-opacity:1;fill-rule:nonzero;stroke:none;stroke-width:4.2;stroke-linejoin:round"
         d="m 32.535018,167.42067 a 100,100 0 0 0 10.52223,12.06729 l 70.276092,-70.98803 -88.944045,45.66658 a 100,100 0 0 0 8.145723,13.25416 z"
         inkscape:label="16" /><path
         id="path3081"
         style="display:inline;opacity:1;fill:#b9a88a;fill-opacity:1;fill-rule:nonzero;stroke:none;stroke-width:4.2;stroke-linejoin:round"
         d="M 194.13165,49.579213 A 100,100 0 0 0 183.60941,37.511918 l -70.27607,70.988012 88.94404,-45.66657 a 100,100 0 0 0 -8.14573,-13.254147 z"
         inkscape:label="4" /><path
         id="path3082"
         style="display:inline;opacity:1;fill:#b9a88a;fill-opacity:1;fill-rule:nonzero;stroke:none;stroke-width:4.2;stroke-linejoin:round"
         d="m 13.333378,108.67574 a 100,100 0 0 0 1.419686,15.94747 L 113.33334,108.49993 14.533946,93.165 a 100,100 0 0 0 -1.200568,15.51074 z"
         inkscape:label="11" /><path
         id="path3083"
         style="display:inline;opacity:1;fill:#b9a88a;fill-opacity:1;fill-rule:nonzero;stroke:none;stroke-width:4.2;stroke-linejoin:round"
         d="m 213.33328,108.32412 a 100,100 0 0 0 -1.41969,-15.94747 l -98.58025,16.12328 98.79938,15.33496 a 100,100 0 0 0 1.20056,-15.51077 z"
         inkscape:label="6" /><path
         id="path3084"
         style="display:inline;opacity:1;fill:#b9a88a;fill-opacity:1;fill-rule:nonzero;stroke:none;stroke-width:4.2;stroke-linejoin:round"
         d="M 32.328326,49.863684 A 100,100 0 0 0 24.103201,63.59993 l 89.230139,44.9 L 42.416615,38.020889 A 100,100 0 0 0 32.328326,49.863684 Z"
         inkscape:label="9" /><path
         id="path3085"
         style="display:inline;opacity:1;fill:#b9a88a;fill-opacity:1;fill-rule:nonzero;stroke:none;stroke-width:4.2;stroke-linejoin:round"
         d="m 194.33833,167.13619 a 100,100 0 0 0 8.22514,-13.73624 l -89.23013,-44.90002 70.91672,70.47906 a 100,100 0 0 0 10.08827,-11.8428 z"
         inkscape:label="15" /></g><g
       inkscape:groupmode="layer"
       id="g3095"
       inkscape:label="color1"
       style="display:inline;opacity:1;fill:#392f2d;fill-opacity:1"><path
         id="path3086"
         style="display:inline;opacity:1;fill:#392f2d;fill-opacity:1;fill-rule:nonzero;stroke:none;stroke-width:4.2;stroke-linejoin:round"
         d="m 113.33335,208.50005 a 100,100 0 0 0 15.94992,-1.39165 l -15.94992,-98.60844 -15.508642,98.77225 a 100,100 0 0 0 15.508642,1.22784 z"
         inkscape:label="3" /><path
         id="path3087"
         style="display:inline;opacity:1;fill:#392f2d;fill-opacity:1;fill-rule:nonzero;stroke:none;stroke-width:4.2;stroke-linejoin:round"
         d="M 113.33333,8.4998549 A 100,100 0 0 0 97.383403,9.8914989 L 113.33335,108.49996 128.84196,9.7276789 a 100,100 0 0 0 -15.50863,-1.227824 z"
         inkscape:label="20" /><path
         id="path3088"
         style="display:inline;opacity:1;fill:#392f2d;fill-opacity:1;fill-rule:nonzero;stroke:none;stroke-width:4.2;stroke-linejoin:round"
         d="m 54.697059,189.50493 a 100,100 0 0 0 13.736245,8.22513 l 44.900036,-89.23013 -70.479072,70.91674 a 100,100 0 0 0 11.842791,10.08826 z"
         inkscape:label="17" /><path
         id="path3089"
         style="display:inline;opacity:1;fill:#392f2d;fill-opacity:1;fill-rule:nonzero;stroke:none;stroke-width:4.2;stroke-linejoin:round"
         d="M 171.9696,27.494957 A 100,100 0 0 0 158.23336,19.269824 L 113.33334,108.49993 183.81239,37.58322 A 100,100 0 0 0 171.9696,27.494957 Z"
         inkscape:label="18" /><path
         id="path3090"
         style="display:inline;opacity:1;fill:#392f2d;fill-opacity:1;fill-rule:nonzero;stroke:none;stroke-width:4.2;stroke-linejoin:round"
         d="m 18.282061,139.56883 a 100,100 0 0 0 6.278237,14.72823 l 88.773042,-45.79713 -98.702561,15.94628 a 100,100 0 0 0 3.651282,15.12262 z"
         inkscape:label="8" /><path
         id="path3091"
         style="display:inline;opacity:1;fill:#392f2d;fill-opacity:1;fill-rule:nonzero;stroke:none;stroke-width:4.2;stroke-linejoin:round"
         d="M 208.38461,77.43105 A 100,100 0 0 0 202.10636,62.70282 L 113.33334,108.49993 212.0359,92.55366 A 100,100 0 0 0 208.38461,77.43105 Z"
         inkscape:label="13" /><path
         id="path3092"
         style="display:inline;opacity:1;fill:#392f2d;fill-opacity:1;fill-rule:nonzero;stroke:none;stroke-width:4.2;stroke-linejoin:round"
         d="M 18.173398,77.76545 A 100,100 0 0 0 14.595561,93.3711 L 113.33334,108.49993 24.108288,63.38486 a 100,100 0 0 0 -5.93489,14.38059 z"
         inkscape:label="14" /><path
         id="path3093"
         style="display:inline;opacity:1;fill:#392f2d;fill-opacity:1;fill-rule:nonzero;stroke:none;stroke-width:4.2;stroke-linejoin:round"
         d="m 208.49327,139.23441 a 100,100 0 0 0 3.57783,-15.60565 l -98.73776,-15.12883 89.22503,45.1151 a 100,100 0 0 0 5.9349,-14.38062 z"
         inkscape:label="10" /><path
         id="path3094"
         style="display:inline;opacity:1;fill:#392f2d;fill-opacity:1;fill-rule:nonzero;stroke:none;stroke-width:4.2;stroke-linejoin:round"
         d="M 54.412591,27.701625 A 100,100 0 0 0 42.345299,38.223868 L 113.33334,108.49993 67.666749,19.55591 a 100,100 0 0 0 -13.254158,8.145715 z"
         inkscape:label="12" /><path
         id="path3095"
         style="display:inline;opacity:1;fill:#392f2d;fill-opacity:1;fill-rule:nonzero;stroke:none;stroke-width:4.2;stroke-linejoin:round"
         d="m 172.25407,189.29825 a 100,100 0 0 0 12.0673,-10.52223 l -70.98803,-70.27609 45.66658,88.94404 a 100,100 0 0 0 13.25415,-8.14572 z"
         inkscape:label="2" /></g></g><g
     inkscape:label="double"
     inkscape:groupmode="layer"
     id="g3136"
     style="display:inline;opacity:1"
     transform="matrix(0.52500017,0,0,0.52499948,51.317242,63.614488)"><g
       inkscape:groupmode="layer"
       id="g3125"
       inkscape:label="color2"
       style="display:inline;fill:#658441;fill-opacity:1"><path
         id="path3116"
         style="display:inline;opacity:1;fill:#658441;fill-opacity:1;fill-rule:nonzero;stroke:none;stroke-width:4.2;stroke-linejoin:round"
         d="m 147.44028,188.22106 a 100,100 0 0 0 14.73923,-6.25233 l -45.64096,-88.85341 15.77272,98.73043 a 100,100 0 0 0 15.12901,-3.62469 z"
         inkscape:label="17" /><path
         id="path3117"
         style="display:inline;opacity:1;fill:#658441;fill-opacity:1;fill-rule:nonzero;stroke:none;stroke-width:4.2;stroke-linejoin:round"
         d="M 85.636809,-1.990424 A 100,100 0 0 0 70.897573,4.2619061 L 116.53855,93.11532 100.7658,-5.615124 a 100,100 0 0 0 -15.128991,3.6247 z"
         inkscape:label="5" /><path
         id="path3118"
         style="display:inline;opacity:1;fill:#658441;fill-opacity:1;fill-rule:nonzero;stroke:none;stroke-width:4.2;stroke-linejoin:round"
         d="m 85.804053,188.27524 a 100,100 0 0 0 15.605647,3.57783 L 116.53854,93.1153 71.423439,182.34035 a 100,100 0 0 0 14.380614,5.93489 z"
         inkscape:label="19" /><path
         id="path3119"
         style="display:inline;opacity:1;fill:#658441;fill-opacity:1;fill-rule:nonzero;stroke:none;stroke-width:4.2;stroke-linejoin:round"
         d="M 147.27302,-2.044611 A 100,100 0 0 0 131.66737,-5.622444 L 116.53854,93.1153 161.65363,3.8902741 A 100,100 0 0 0 147.27302,-2.044611 Z"
         inkscape:label="1" /><path
         id="path3120"
         style="display:inline;opacity:1;fill:#658441;fill-opacity:1;fill-rule:nonzero;stroke:none;stroke-width:4.2;stroke-linejoin:round"
         d="m 35.740224,152.03604 a 100,100 0 0 0 10.52223,12.06729 L 116.53854,93.1153 27.594501,138.78188 a 100,100 0 0 0 8.145723,13.25416 z"
         inkscape:label="16" /><path
         id="path3121"
         style="display:inline;opacity:1;fill:#658441;fill-opacity:1;fill-rule:nonzero;stroke:none;stroke-width:4.2;stroke-linejoin:round"
         d="M 197.33685,34.194583 A 100,100 0 0 0 186.81461,22.127288 L 116.53854,93.1153 205.48258,47.44873 a 100,100 0 0 0 -8.14573,-13.254147 z"
         inkscape:label="4" /><path
         id="path3122"
         style="display:inline;opacity:1;fill:#658441;fill-opacity:1;fill-rule:nonzero;stroke:none;stroke-width:4.2;stroke-linejoin:round"
         d="m 16.538584,93.29111 a 100,100 0 0 0 1.419686,15.94747 L 116.53854,93.1153 17.739152,77.78037 a 100,100 0 0 0 -1.200568,15.51074 z"
         inkscape:label="11" /><path
         id="path3123"
         style="display:inline;opacity:1;fill:#658441;fill-opacity:1;fill-rule:nonzero;stroke:none;stroke-width:4.2;stroke-linejoin:round"
         d="m 216.53848,92.93949 a 100,100 0 0 0 -1.41969,-15.94747 l -98.58025,16.12328 98.79938,15.33496 a 100,100 0 0 0 1.20056,-15.51077 z"
         inkscape:label="6" /><path
         id="path3124"
         style="display:inline;opacity:1;fill:#658441;fill-opacity:1;fill-rule:nonzero;stroke:none;stroke-width:4.2;stroke-linejoin:round"
         d="M 35.533532,34.479054 A 100,100 0 0 0 27.308407,48.2153 l 89.230133,44.9 L 45.621821,22.636259 A 100,100 0 0 0 35.533532,34.479054 Z"
         inkscape:label="9" /><path
         id="path3125"
         style="display:inline;opacity:1;fill:#658441;fill-opacity:1;fill-rule:nonzero;stroke:none;stroke-width:4.2;stroke-linejoin:round"
         d="m 197.54353,151.75156 a 100,100 0 0 0 8.22514,-13.73624 l -89.23013,-44.90002 70.91672,70.47906 a 100,100 0 0 0 10.08827,-11.8428 z"
         inkscape:label="15" /></g><g
       inkscape:groupmode="layer"
       id="g3135"
       inkscape:label="color1"
       style="display:inline;opacity:1;fill:#9d4c39;fill-opacity:1"><path
         id="path3126"
         style="display:inline;opacity:1;fill:#9d4c39;fill-opacity:1;fill-rule:nonzero;stroke:none;stroke-width:4.2;stroke-linejoin:round"
         d="m 116.53855,193.11542 a 100,100 0 0 0 15.94992,-1.39165 l -15.94992,-98.60844 -15.50864,98.77225 a 100,100 0 0 0 15.50864,1.22784 z"
         inkscape:label="3" /><path
         id="path3127"
         style="display:inline;opacity:1;fill:#9d4c39;fill-opacity:1;fill-rule:nonzero;stroke:none;stroke-width:4.2;stroke-linejoin:round"
         d="M 116.53853,-6.8847764 A 100,100 0 0 0 100.58861,-5.493132 L 116.53855,93.11533 132.04716,-5.656952 A 100,100 0 0 0 116.53853,-6.8847764 Z"
         inkscape:label="20" /><path
         id="path3128"
         style="display:inline;opacity:1;fill:#9d4c39;fill-opacity:1;fill-rule:nonzero;stroke:none;stroke-width:4.2;stroke-linejoin:round"
         d="m 57.902265,174.1203 a 100,100 0 0 0 13.736245,8.22513 L 116.53854,93.1153 46.059474,164.03204 a 100,100 0 0 0 11.842791,10.08826 z"
         inkscape:label="17" /><path
         id="path3129"
         style="display:inline;opacity:1;fill:#9d4c39;fill-opacity:1;fill-rule:nonzero;stroke:none;stroke-width:4.2;stroke-linejoin:round"
         d="M 175.1748,12.110327 A 100,100 0 0 0 161.43856,3.8851941 L 116.53854,93.1153 187.01759,22.19859 A 100,100 0 0 0 175.1748,12.110327 Z"
         inkscape:label="18" /><path
         id="path3130"
         style="display:inline;opacity:1;fill:#9d4c39;fill-opacity:1;fill-rule:nonzero;stroke:none;stroke-width:4.2;stroke-linejoin:round"
         d="m 21.487267,124.1842 a 100,100 0 0 0 6.278237,14.72823 L 116.53854,93.1153 17.835984,109.06158 a 100,100 0 0 0 3.651283,15.12262 z"
         inkscape:label="8" /><path
         id="path3131"
         style="display:inline;opacity:1;fill:#9d4c39;fill-opacity:1;fill-rule:nonzero;stroke:none;stroke-width:4.2;stroke-linejoin:round"
         d="M 211.58981,62.04642 A 100,100 0 0 0 205.31156,47.31819 L 116.53854,93.1153 215.2411,77.16903 a 100,100 0 0 0 -3.65129,-15.12261 z"
         inkscape:label="13" /><path
         id="path3132"
         style="display:inline;opacity:1;fill:#9d4c39;fill-opacity:1;fill-rule:nonzero;stroke:none;stroke-width:4.2;stroke-linejoin:round"
         d="M 21.378604,62.38082 A 100,100 0 0 0 17.800766,77.98647 L 116.53854,93.1153 27.313494,48.00023 a 100,100 0 0 0 -5.93489,14.38059 z"
         inkscape:label="14" /><path
         id="path3133"
         style="display:inline;opacity:1;fill:#9d4c39;fill-opacity:1;fill-rule:nonzero;stroke:none;stroke-width:4.2;stroke-linejoin:round"
         d="m 211.69847,123.84978 a 100,100 0 0 0 3.57783,-15.60565 l -98.73776,-15.12883 89.22503,45.1151 a 100,100 0 0 0 5.9349,-14.38062 z"
         inkscape:label="10" /><path
         id="path3134"
         style="display:inline;opacity:1;fill:#9d4c39;fill-opacity:1;fill-rule:nonzero;stroke:none;stroke-width:4.2;stroke-linejoin:round"
         d="M 57.617797,12.316995 A 100,100 0 0 0 45.550505,22.839238 L 116.53854,93.1153 70.871955,4.1712801 A 100,100 0 0 0 57.617797,12.316995 Z"
         inkscape:label="12" /><path
         id="path3135"
         style="display:inline;opacity:1;fill:#9d4c39;fill-opacity:1;fill-rule:nonzero;stroke:none;stroke-width:4.2;stroke-linejoin:round"
         d="m 175.45927,173.91362 a 100,100 0 0 0 12.0673,-10.52223 l -70.98803,-70.27609 45.66658,88.94404 a 100,100 0 0 0 13.25415,-8.14572 z"
         inkscape:label="2" /></g></g><g
     inkscape:label="singleIn"
     inkscape:groupmode="layer"
     id="g3156"
     style="display:inline;opacity:1"
     transform="matrix(0.3000001,0,0,0.29999972,76.499938,89.55003)"><g
       inkscape:groupmode="layer"
       id="g3145"
       inkscape:label="color2"
       style="display:inline;fill:#b9a88a;fill-opacity:1"><path
         id="path3136"
         style="display:inline;opacity:1;fill:#b9a88a;fill-opacity:1;fill-rule:nonzero;stroke:none;stroke-width:4.2;stroke-linejoin:round"
         d="m 150.9019,171.60565 a 100,100 0 0 0 14.73923,-6.25233 l -45.64096,-88.8534 15.77272,98.73042 a 100,100 0 0 0 15.12901,-3.62469 z"
         inkscape:label="17" /><path
         id="path3137"
         style="display:inline;opacity:1;fill:#b9a88a;fill-opacity:1;fill-rule:nonzero;stroke:none;stroke-width:4.2;stroke-linejoin:round"
         d="m 89.09843,-18.605824 a 100,100 0 0 0 -14.739236,6.25233 L 120.00017,76.49992 104.22743,-22.230524 a 100,100 0 0 0 -15.129,3.6247 z"
         inkscape:label="5" /><path
         id="path3138"
         style="display:inline;opacity:1;fill:#b9a88a;fill-opacity:1;fill-rule:nonzero;stroke:none;stroke-width:4.2;stroke-linejoin:round"
         d="m 89.265674,171.65983 a 100,100 0 0 0 15.605646,3.57783 l 15.12884,-98.73776 -45.1151,89.22504 a 100,100 0 0 0 14.380614,5.93489 z"
         inkscape:label="19" /><path
         id="path3139"
         style="display:inline;opacity:1;fill:#b9a88a;fill-opacity:1;fill-rule:nonzero;stroke:none;stroke-width:4.2;stroke-linejoin:round"
         d="m 150.73464,-18.660011 a 100,100 0 0 0 -15.60565,-3.577833 L 120.00016,76.4999 165.11525,-12.725126 a 100,100 0 0 0 -14.38061,-5.934885 z"
         inkscape:label="1" /><path
         id="path3140"
         style="display:inline;opacity:1;fill:#b9a88a;fill-opacity:1;fill-rule:nonzero;stroke:none;stroke-width:4.2;stroke-linejoin:round"
         d="m 39.201845,135.42063 a 100,100 0 0 0 10.52223,12.06729 L 120.00016,76.4999 31.056122,122.16647 a 100,100 0 0 0 8.145723,13.25416 z"
         inkscape:label="16" /><path
         id="path3141"
         style="display:inline;opacity:1;fill:#b9a88a;fill-opacity:1;fill-rule:nonzero;stroke:none;stroke-width:4.2;stroke-linejoin:round"
         d="M 200.79847,17.579183 A 100,100 0 0 0 190.27623,5.5118874 L 120.00016,76.4999 208.9442,30.83333 a 100,100 0 0 0 -8.14573,-13.254147 z"
         inkscape:label="4" /><path
         id="path3142"
         style="display:inline;opacity:1;fill:#b9a88a;fill-opacity:1;fill-rule:nonzero;stroke:none;stroke-width:4.2;stroke-linejoin:round"
         d="m 20.000205,76.67571 a 100,100 0 0 0 1.419686,15.94747 L 120.00016,76.4999 21.200773,61.16497 a 100,100 0 0 0 -1.200568,15.51074 z"
         inkscape:label="11" /><path
         id="path3143"
         style="display:inline;opacity:1;fill:#b9a88a;fill-opacity:1;fill-rule:nonzero;stroke:none;stroke-width:4.2;stroke-linejoin:round"
         d="M 220.0001,76.32409 A 100,100 0 0 0 218.58041,60.37662 L 120.00016,76.4999 218.79954,91.83486 A 100,100 0 0 0 220.0001,76.32409 Z"
         inkscape:label="6" /><path
         id="path3144"
         style="display:inline;opacity:1;fill:#b9a88a;fill-opacity:1;fill-rule:nonzero;stroke:none;stroke-width:4.2;stroke-linejoin:round"
         d="M 38.995153,17.863654 A 100,100 0 0 0 30.770028,31.5999 l 89.230132,44.9 L 49.083442,6.0208584 A 100,100 0 0 0 38.995153,17.863654 Z"
         inkscape:label="9" /><path
         id="path3145"
         style="display:inline;opacity:1;fill:#b9a88a;fill-opacity:1;fill-rule:nonzero;stroke:none;stroke-width:4.2;stroke-linejoin:round"
         d="m 201.00515,135.13615 a 100,100 0 0 0 8.22514,-13.73624 l -89.23013,-44.90001 70.91672,70.47905 a 100,100 0 0 0 10.08827,-11.8428 z"
         inkscape:label="15" /></g><g
       inkscape:groupmode="layer"
       id="g3155"
       inkscape:label="color1"
       style="display:inline;opacity:1;fill:#392f2d;fill-opacity:1"><path
         id="path3146"
         style="display:inline;opacity:1;fill:#392f2d;fill-opacity:1;fill-rule:nonzero;stroke:none;stroke-width:4.2;stroke-linejoin:round"
         d="m 120.00017,176.50001 a 100,100 0 0 0 15.94992,-1.39165 l -15.94992,-98.60843 -15.50863,98.77224 a 100,100 0 0 0 15.50863,1.22784 z"
         inkscape:label="3" /><path
         id="path3147"
         style="display:inline;opacity:1;fill:#392f2d;fill-opacity:1;fill-rule:nonzero;stroke:none;stroke-width:4.2;stroke-linejoin:round"
         d="m 120.00015,-23.500176 a 100,100 0 0 0 -15.94992,1.391644 l 15.94994,98.608462 15.50861,-98.772282 a 100,100 0 0 0 -15.50863,-1.227824 z"
         inkscape:label="20" /><path
         id="path3148"
         style="display:inline;opacity:1;fill:#392f2d;fill-opacity:1;fill-rule:nonzero;stroke:none;stroke-width:4.2;stroke-linejoin:round"
         d="m 61.363886,157.50489 a 100,100 0 0 0 13.736245,8.22513 L 120.00016,76.4999 49.521095,147.41663 a 100,100 0 0 0 11.842791,10.08826 z"
         inkscape:label="17" /><path
         id="path3149"
         style="display:inline;opacity:1;fill:#392f2d;fill-opacity:1;fill-rule:nonzero;stroke:none;stroke-width:4.2;stroke-linejoin:round"
         d="M 178.63642,-4.5050736 A 100,100 0 0 0 164.90018,-12.730206 L 120.00016,76.4999 190.47921,5.5831894 a 100,100 0 0 0 -11.84279,-10.088263 z"
         inkscape:label="18" /><path
         id="path3150"
         style="display:inline;opacity:1;fill:#392f2d;fill-opacity:1;fill-rule:nonzero;stroke:none;stroke-width:4.2;stroke-linejoin:round"
         d="m 24.948888,107.56879 a 100,100 0 0 0 6.278237,14.72823 L 120.00016,76.4999 21.297605,92.44618 a 100,100 0 0 0 3.651283,15.12261 z"
         inkscape:label="8" /><path
         id="path3151"
         style="display:inline;opacity:1;fill:#392f2d;fill-opacity:1;fill-rule:nonzero;stroke:none;stroke-width:4.2;stroke-linejoin:round"
         d="M 215.05143,45.43102 A 100,100 0 0 0 208.77318,30.70279 L 120.00016,76.4999 218.70272,60.55363 a 100,100 0 0 0 -3.65129,-15.12261 z"
         inkscape:label="13" /><path
         id="path3152"
         style="display:inline;opacity:1;fill:#392f2d;fill-opacity:1;fill-rule:nonzero;stroke:none;stroke-width:4.2;stroke-linejoin:round"
         d="M 24.840225,45.76542 A 100,100 0 0 0 21.262387,61.37107 L 120.00016,76.4999 30.775115,31.38483 a 100,100 0 0 0 -5.93489,14.38059 z"
         inkscape:label="14" /><path
         id="path3153"
         style="display:inline;opacity:1;fill:#392f2d;fill-opacity:1;fill-rule:nonzero;stroke:none;stroke-width:4.2;stroke-linejoin:round"
         d="m 215.16009,107.23437 a 100,100 0 0 0 3.57783,-15.60564 l -98.73776,-15.12883 89.22503,45.11509 a 100,100 0 0 0 5.9349,-14.38062 z"
         inkscape:label="10" /><path
         id="path3154"
         style="display:inline;opacity:1;fill:#392f2d;fill-opacity:1;fill-rule:nonzero;stroke:none;stroke-width:4.2;stroke-linejoin:round"
         d="M 61.079418,-4.2984056 A 100,100 0 0 0 49.012126,6.2238374 L 120.00016,76.4999 74.333576,-12.44412 a 100,100 0 0 0 -13.254158,8.1457144 z"
         inkscape:label="12" /><path
         id="path3155"
         style="display:inline;opacity:1;fill:#392f2d;fill-opacity:1;fill-rule:nonzero;stroke:none;stroke-width:4.2;stroke-linejoin:round"
         d="m 178.92089,157.29821 a 100,100 0 0 0 12.0673,-10.52223 l -70.98803,-70.27608 45.66658,88.94403 a 100,100 0 0 0 13.25415,-8.14572 z"
         inkscape:label="2" /></g></g><g
     inkscape:groupmode="layer"
     id="layer4"
     inkscape:label="bullseye"
     style="display:inline"
     transform="translate(1.1492871e-5)"><circle
       style="fill:#658441;fill-opacity:1;fill-rule:nonzero;stroke:none;stroke-width:3.71945;stroke-linejoin:round"
       id="path3156"
       cx="112.49995"
       cy="112.67419"
       inkscape:label="single"
       r="18" /><circle
       style="fill:#9d4c39;fill-opacity:1;fill-rule:nonzero;stroke:none;stroke-width:1.85973;stroke-linejoin:round"
       id="path3156-3"
       cx="112.49995"
       cy="112.5"
       inkscape:label="double"
       r="9" /></g></svg>
