<?xml version="1.0" encoding="UTF-8" standalone="no"?>
<svg
   width="200mm"
   height="200mm"
   viewBox="0 0 200 200"
   version="1.1"
   id="svg1"
   sodipodi:docname="icon-font.svg"
   inkscape:version="1.3.2 (091e20e, 2023-11-25, custom)"
   xmlns:inkscape="http://www.inkscape.org/namespaces/inkscape"
   xmlns:sodipodi="http://sodipodi.sourceforge.net/DTD/sodipodi-0.dtd"
   xmlns="http://www.w3.org/2000/svg"
   xmlns:svg="http://www.w3.org/2000/svg">
  <sodipodi:namedview
     id="namedview1"
     pagecolor="#ffffff"
     bordercolor="#999999"
     borderopacity="1"
     inkscape:showpageshadow="0"
     inkscape:pageopacity="0"
     inkscape:pagecheckerboard="0"
     inkscape:deskcolor="#d1d1d1"
     inkscape:document-units="mm"
     inkscape:zoom="0.76051544"
     inkscape:cx="353.05003"
     inkscape:cy="326.75208"
     inkscape:window-width="1920"
     inkscape:window-height="1009"
     inkscape:window-x="1912"
     inkscape:window-y="-8"
     inkscape:window-maximized="1"
     inkscape:current-layer="svg1"
     showguides="true" />
  <defs
     id="defs1">
    <inkscape:path-effect
       effect="fillet_chamfer"
       id="path-effect1"
       is_visible="true"
       lpeversion="1"
       nodesatellites_param="F,0,0,1,0,2.6988795,0,1 @ F,0,0,1,0,2.728952,0,1 @ F,0,0,1,0,3.0034395,0,1 @ F,0,0,1,0,2.6577706,0,1"
       radius="0"
       unit="px"
       method="auto"
       mode="F"
       chamfer_steps="1"
       flexible="false"
       use_knot_distance="true"
       apply_no_radius="true"
       apply_with_radius="true"
       only_selected="false"
       hide_knots="false" />
    <inkscape:path-effect
       effect="fillet_chamfer"
       id="path-effect1-4"
       is_visible="true"
       lpeversion="1"
       nodesatellites_param="F,0,0,1,0,2.6988795,0,1 @ F,0,0,1,0,2.728952,0,1 @ F,0,0,1,0,3.0034395,0,1 @ F,0,0,1,0,2.6592037,0,1"
       radius="0"
       unit="px"
       method="auto"
       mode="F"
       chamfer_steps="1"
       flexible="false"
       use_knot_distance="true"
       apply_no_radius="true"
       apply_with_radius="true"
       only_selected="false"
       hide_knots="false" />
    <inkscape:path-effect
       effect="fillet_chamfer"
       id="path-effect1-7"
       is_visible="true"
       lpeversion="1"
       nodesatellites_param="F,0,0,1,0,2.6988795,0,1 @ F,0,0,1,0,2.728952,0,1 @ F,0,0,1,0,3.0034395,0,1 @ F,0,0,1,0,2.6577706,0,1"
       radius="0"
       unit="px"
       method="auto"
       mode="F"
       chamfer_steps="1"
       flexible="false"
       use_knot_distance="true"
       apply_no_radius="true"
       apply_with_radius="true"
       only_selected="false"
       hide_knots="false" />
    <inkscape:path-effect
       effect="fillet_chamfer"
       id="path-effect1-4-8"
       is_visible="true"
       lpeversion="1"
       nodesatellites_param="F,0,0,1,0,2.6988795,0,1 @ F,0,0,1,0,2.0352024,0,1 @ F,0,0,1,0,3.0034395,0,1 @ F,0,0,1,0,2.6592037,0,1"
       radius="0"
       unit="px"
       method="auto"
       mode="F"
       chamfer_steps="1"
       flexible="false"
       use_knot_distance="true"
       apply_no_radius="true"
       apply_with_radius="true"
       only_selected="false"
       hide_knots="false" />
    <inkscape:path-effect
       effect="fillet_chamfer"
       id="path-effect1-4-9"
       is_visible="true"
       lpeversion="1"
       nodesatellites_param="F,0,0,1,0,2.6988795,0,1 @ F,0,0,1,0,2.2883494,0,1 @ F,0,0,1,0,2.9587932,0,1 @ F,0,0,1,0,2.6592037,0,1"
       radius="0"
       unit="px"
       method="auto"
       mode="F"
       chamfer_steps="1"
       flexible="false"
       use_knot_distance="true"
       apply_no_radius="true"
       apply_with_radius="true"
       only_selected="false"
       hide_knots="false" />
  </defs>
  <g
     id="layer1">
    <path
       style="fill:#000000;fill-opacity:1;stroke:#000000;stroke-width:4.2;stroke-linejoin:round;stroke-dasharray:none;stroke-opacity:1;paint-order:normal"
       d="M 176.2125,130.96875 192.88125,114.3 164.30625,35.718751 Z"
       id="path6-9" />
    <path
       style="fill:#000000;fill-opacity:1;stroke:#000000;stroke-width:5.4;stroke-linecap:butt;stroke-linejoin:round;stroke-dasharray:none;stroke-dashoffset:0;stroke-opacity:1;paint-order:normal"
       d="M 7.1437499,85.724999 7.1730852,192.85191 164.30625,35.71875 l -114.3,-14.2875 z"
       id="path3" />
  </g>
  <path
     style="fill:#000000;fill-opacity:1;stroke:none;stroke-width:0;stroke-linejoin:round;paint-order:stroke fill markers"
     id="rect1"
     width="117.0094"
     height="5.3992372"
     x="4.4734664"
     y="190.1523"
     inkscape:path-effect="#path-effect1"
     sodipodi:type="rect"
     d="M 7.1723459,190.1523 H 118.75391 a 2.728952,2.728952 45 0 1 2.72896,2.72895 2.8417487,2.8417487 138.36048 0 1 -3.00344,2.67029 H 7.131237 a 2.6577706,2.6577706 45 0 1 -2.6577706,-2.65778 v -0.0426 a 2.6988795,2.6988795 135 0 1 2.6988795,-2.69888 z"
     transform="matrix(1.0237861,0,0,1,-0.10640643,0)" />
  <path
     style="fill:#000000;fill-opacity:1;stroke:none;stroke-width:0;stroke-linejoin:round;paint-order:stroke fill markers"
     id="rect1-1"
     width="117.0094"
     height="5.3992372"
     x="4.4734664"
     y="190.1523"
     inkscape:path-effect="#path-effect1-7"
     sodipodi:type="rect"
     d="M 7.1723459,190.1523 H 118.75391 a 2.728952,2.728952 45 0 1 2.72896,2.72895 2.8417487,2.8417487 138.36048 0 1 -3.00344,2.67029 H 7.131237 a 2.6577706,2.6577706 45 0 1 -2.6577706,-2.65778 v -0.0426 a 2.6988795,2.6988795 135 0 1 2.6988795,-2.69888 z"
     transform="matrix(-0.12654148,-1.0159358,0.99233194,-0.12360149,-11.944501,180.95448)" />
  <path
     style="fill:#000000;fill-opacity:1;stroke:none;stroke-width:0;stroke-linejoin:round;paint-order:stroke fill markers"
     id="rect1-2"
     width="74.960281"
     height="5.3252554"
     x="22.582752"
     y="190.4649"
     inkscape:path-effect="#path-effect1-4"
     sodipodi:type="rect"
     d="m 25.281632,190.4649 h 69.53245 a 2.728952,2.728952 45 0 1 2.728952,2.72896 2.807262,2.807262 139.15844 0 1 -3.00344,2.5963 H 25.241956 a 2.6592037,2.6592037 45 0 1 -2.659204,-2.6592 2.6825158,2.6825158 135.35059 0 1 2.69888,-2.66606 z"
     transform="matrix(0.81870621,-0.61470197,0.60042024,0.79968469,-15.065742,53.891228)" />
  <path
     style="fill:#000000;fill-opacity:1;stroke:none;stroke-width:0;stroke-linejoin:round;paint-order:stroke fill markers"
     id="rect1-2-9"
     width="92.021301"
     height="4.5015244"
     x="22.582752"
     y="190.4649"
     inkscape:path-effect="#path-effect1-4-9"
     sodipodi:type="rect"
     d="m 25.281632,190.4649 87.034068,0 a 2.2883494,2.2883494 45 0 1 2.28835,2.28835 2.612719,2.612719 143.20354 0 1 -2.95879,2.21318 H 25.241956 a 2.6592037,2.6592037 45 0 1 -2.659204,-2.6592 2.310638,2.310638 145.6816 0 1 2.69888,-1.84233 z"
     transform="matrix(0.89527581,0.32774858,-0.30761925,0.90812582,123.27788,-175.95612)" />
  <path
     style="fill:#000000;fill-opacity:1;stroke:none;stroke-width:0;stroke-linejoin:round;paint-order:stroke fill markers"
     id="rect1-2-3"
     width="26.724079"
     height="4.1683164"
     x="70.562309"
     y="190.5786"
     inkscape:path-effect="#path-effect1-4-8"
     sodipodi:type="rect"
     d="m 73.261189,190.5786 h 21.989997 a 2.0352024,2.0352024 45 0 1 2.035202,2.0352 2.6048823,2.6048823 144.61673 0 1 -3.003439,2.13311 H 73.221513 a 2.6592037,2.6592037 45 0 1 -2.659204,-2.6592 2.1864779,2.1864779 150.78771 0 1 2.69888,-1.50911 z"
     transform="matrix(0.72518864,-0.72266158,0.70587161,0.70833988,-119.3099,-60.523151)" />
</svg>
